<svg width="36" height="36" viewBox="0 0 36 36" fill="none" xmlns="http://www.w3.org/2000/svg">
<path d="M4.77734 6.17187C4.77734 5.73437 4.92318 5.36979 5.21484 5.07812C5.50651 4.78646 5.87109 4.64062 6.30859 4.64062L12.2148 4.64062C12.5551 4.64062 12.8531 4.75 13.1088 4.96875C13.3635 5.1875 13.5273 5.46701 13.6003 5.80729L14.6211 10.8385C14.6697 11.1788 14.6396 11.5254 14.5307 11.8783C14.4208 12.2303 14.2565 12.5156 14.0378 12.7344L10.6107 16.1615C11.7287 18.0087 13.0534 19.6979 14.5846 21.2292C16.1159 22.7604 17.7565 24.0365 19.5065 25.0573L23.0794 21.5573C23.2982 21.3385 23.5476 21.1985 23.8276 21.1373C24.1066 21.077 24.4162 21.0712 24.7565 21.1198L29.8607 22.0677C30.201 22.1163 30.4805 22.2743 30.6992 22.5417C30.918 22.809 31.0273 23.1128 31.0273 23.4531L31.0273 29.3594C31.0273 29.7969 30.8815 30.1615 30.5898 30.4531C30.2982 30.7448 29.9336 30.8906 29.4961 30.8906C26.3607 30.8906 23.3045 30.1916 20.3276 28.7935C17.3496 27.3965 14.7125 25.5492 12.4161 23.2519C10.1187 20.9555 8.27151 18.3188 6.87443 15.3419C5.47637 12.364 4.77734 9.30729 4.77734 6.17187Z" fill="#00D18E"/>
</svg>
