<?xml version="1.0" encoding="utf-8"?>
<!-- Generator: Adobe Illustrator 19.2.1, SVG Export Plug-In . SVG Version: 6.00 Build 0)  -->
<svg version="1.1" id="layer" xmlns="http://www.w3.org/2000/svg" xmlns:xlink="http://www.w3.org/1999/xlink" x="0px" y="0px"
	 viewBox="0 0 652 652" style="enable-background:new 0 0 652 652;" xml:space="preserve">
<style type="text/css">
	.st0{fill:#FFFFFF;}
	.st1{fill:#E92126;}
</style>
<rect x="20" y="247.1" width="600" height="150"/>
<path class="st0" d="M77.1,314.7v5.5h9.5v4.6h-9.5v9.3h-5.8v-24.2h17.8v4.8H77.1z"/>
<path class="st0" d="M126.9,329.3v4.8H111v-24.2h5.8v19.4H126.9z"/>
<path class="st0" d="M150.5,330.6c-1.8-2.5-2.6-5.6-2.6-8.6c0-6.4,3.4-12.3,10.8-12.3c3.4,0,6,1.1,7.9,3.7c1.8,2.3,2.6,5.8,2.6,8.6
	s-0.7,6.2-2.3,8.3c-1.9,2.8-4.9,4.1-8.3,4.1C155.3,334.4,152.4,333.2,150.5,330.6 M154.7,317c-0.5,1.4-0.7,3.5-0.7,4.9
	c0,3,0.5,7.8,4.6,7.8c1.9,0,3-0.9,3.7-2.8c0.5-1.2,0.7-3.4,0.7-4.9c0-1.8-0.2-3.9-0.9-5.5c-0.7-1.6-1.8-2.3-3.5-2.3
	C156.5,314.2,155.4,315.2,154.7,317"/>
<path class="st0" d="M220,334.1h-5.8l-4.1-15.9l0,0l-3.9,15.9h-5.6l-6.5-24.2h6l3.9,16.2l0,0l4.1-16.2h5.3l4.2,16.2l0,0l0.2-1.1
	l3.7-15.2h4.8L220,334.1z"/>
<path class="st0" d="M321.4,334.1h-3.2v-21.5h-7.1v-2.6h17.3v2.6h-7.1V334.1z"/>
<path class="st0" d="M364.4,334.1l-4.6-10.4H353v10.4h-3.2v-24.2h9.3c2.1,0,4.1,0.2,5.6,1.4c1.6,1.2,2.6,3.2,2.6,5.3
	c0,2.8-1.8,5.5-4.6,6.2l4.9,11.1h-3.4V334.1z M358.8,321.2c1.6,0,3-0.2,4.2-1.4c0.9-0.9,1.2-1.9,1.2-3.2c0-1.4-0.5-2.6-1.8-3.4
	c-1.1-0.7-2.1-0.7-3.5-0.7h-6.2v8.6H358.8z"/>
<path class="st0" d="M408.4,334.1h-3.2l-2.5-7.1h-9.2l-2.3,7.1h-2.6l8.1-24.2h3.5L408.4,334.1z M398.1,313.1l-3.9,11.6h7.6
	L398.1,313.1z"/>
<path class="st0" d="M431.7,309.9h7.9c3.5,0,6.2,0.7,8.6,3.4c2.1,2.5,3,5.5,3,8.6c0,3-0.9,5.8-2.6,8.3c-1.9,2.6-4.6,3.9-7.9,3.9
	h-8.8v-24.2H431.7z M439.4,331.4c2.8,0,5.1-0.7,6.9-3c1.2-1.8,1.8-4.2,1.8-6.5c0-2.5-0.7-5.1-2.3-7.1c-1.8-2.1-3.7-2.5-6.4-2.5h-4.6
	v19C434.8,331.4,439.4,331.4,439.4,331.4z"/>
<path class="st0" d="M491.1,334.1H475v-24.2h15.7v2.6H478v7.6h10.1v2.5H478v8.8h13.1L491.1,334.1L491.1,334.1z"/>
<path class="st0" d="M528.3,334.1l-4.6-10.4h-6.9v10.4h-3.2v-24.2h9.3c2.1,0,4.1,0.2,5.6,1.4c1.6,1.2,2.6,3.2,2.6,5.3
	c0,2.8-1.8,5.5-4.6,6.2l4.9,11.1h-3.4V334.1z M522.7,321.2c1.6,0,3-0.2,4.2-1.4c0.9-0.9,1.2-1.9,1.2-3.2c0-1.4-0.5-2.6-1.8-3.4
	c-1.1-0.7-2.1-0.7-3.5-0.7h-6.2v8.6H522.7z"/>
<path class="st0" d="M552.1,326.9c1.1,3.4,3.9,4.9,7.4,4.9c1.4,0,3.4-0.4,4.4-1.2c0.9-0.7,1.6-1.9,1.6-3.2c0-2.5-2.1-3.4-4.2-3.9
	l-4.1-1.1c-1.6-0.4-3.2-0.7-4.6-1.9c-1.2-1.1-1.9-2.8-1.9-4.4c0-4.6,4.1-6.7,8.5-6.7c4.2,0,7.6,1.9,8.8,5.8l-2.8,0.7
	c-0.5-2.6-3.5-4.2-6.2-4.2c-2.3,0-5.3,1.2-5.3,3.9c0,2.6,2.1,3.4,4.6,3.9l3.7,0.9c1.6,0.4,3.4,0.9,4.6,1.9c1.6,1.2,2.3,2.8,2.3,4.8
	c0,2.1-1.1,4.2-2.8,5.5c-1.8,1.4-4.2,1.8-6.5,1.8c-5.1,0-8.5-2.1-10.1-6.9L552.1,326.9z"/>
<path class="st1" d="M281.2,334.3h-24.7v-24.7h24.7V334.3z"/>
</svg>
